<svg width="26" height="27" viewBox="0 0 26 27" fill="none" xmlns="http://www.w3.org/2000/svg">
<path d="M7.65 5.4H17.55C18.045 5.4 18.45 4.995 18.45 4.5V2.7C18.45 1.215 17.235 0 15.75 0H9.45C7.965 0 6.75 1.215 6.75 2.7V4.5C6.75 4.995 7.155 5.4 7.65 5.4Z" fill="#D9D9D9"/>
<path d="M22.5 2.25H21.6C21.33 2.25 21.15 2.43 21.15 2.7V4.5C21.15 6.48 19.53 8.1 17.55 8.1H7.65C5.67 8.1 4.05 6.48 4.05 4.5V2.7C4.05 2.43 3.87 2.25 3.6 2.25H2.7C1.215 2.25 0 3.465 0 4.95V24.3C0 25.785 1.215 27 2.7 27H22.5C23.985 27 25.2 25.785 25.2 24.3V4.95C25.2 3.465 23.985 2.25 22.5 2.25ZM20.16 13.05L11.52 21.69C11.295 21.915 11.025 22.05 10.71 22.05C10.395 22.05 10.08 21.915 9.855 21.69L5.04 16.875C4.815 16.65 4.815 16.38 5.04 16.155L5.985 15.21C6.21 14.985 6.48 14.985 6.705 15.21L10.665 19.17L18.45 11.385C18.675 11.16 18.945 11.16 19.17 11.385L20.115 12.33C20.34 12.555 20.34 12.87 20.16 13.05Z" fill="#D9D9D9"/>
</svg>
