<svg width="34" height="34" viewBox="0 0 34 34" fill="none" xmlns="http://www.w3.org/2000/svg">
<path d="M15.5 2.58823H12.5C5 2.58823 2 5.5294 2 12.8823V21.7059C2 29.0588 5 32 12.5 32H21.5C29 32 32 29.0588 32 21.7059V18.7647" stroke="#F89019" stroke-width="3" stroke-linecap="round" stroke-linejoin="round"/>
<path d="M22.6843 3.86944L10.866 15.4576C10.4161 15.8988 9.96617 16.7664 9.87618 17.3988L9.23128 21.8252C8.99131 23.4281 10.1461 24.5458 11.7809 24.3252L16.2952 23.6928C16.9251 23.6046 17.81 23.1634 18.2749 22.7222L30.0932 11.1341C32.1328 9.13411 33.0927 6.8106 30.0932 3.86944C27.0936 0.928286 24.724 1.86946 22.6843 3.86944V3.86944Z" stroke="#F89019" stroke-width="3" stroke-miterlimit="10" stroke-linecap="round" stroke-linejoin="round"/>
<path d="M21.1997 5.5294C21.683 7.35211 22.5989 9.01248 23.8596 10.3515C25.1203 11.6904 26.6836 12.6632 28.3997 13.1765" stroke="#F89019" stroke-width="3" stroke-miterlimit="10" stroke-linecap="round" stroke-linejoin="round"/>
</svg>
