<svg width="960" height="1080" viewBox="0 0 960 1080" fill="none" xmlns="http://www.w3.org/2000/svg">
<path d="M475.72 1172.05C479.547 1165.32 479.547 1157.06 475.72 1150.33L415.662 1044.63C411.754 1037.75 404.453 1033.5 396.543 1033.5L277.074 1033.5C269.164 1033.5 261.863 1037.75 257.955 1044.63L197.897 1150.33C194.07 1157.06 194.07 1165.32 197.897 1172.05L257.955 1277.76C261.863 1284.63 269.164 1288.88 277.074 1288.88L396.543 1288.88C404.453 1288.88 411.754 1284.63 415.662 1277.76L475.72 1172.05Z" stroke="#E78D0A" stroke-width="3"/>
<path d="M713.72 1035.05C717.547 1028.32 717.547 1020.06 713.72 1013.33L653.662 907.626C649.754 900.749 642.453 896.5 634.543 896.5L515.074 896.5C507.164 896.5 499.863 900.749 495.955 907.626L435.897 1013.33C432.07 1020.06 432.07 1028.32 435.897 1035.05L495.955 1140.76C499.863 1147.63 507.164 1151.88 515.074 1151.88L634.543 1151.88C642.453 1151.88 649.754 1147.63 653.662 1140.76L713.72 1035.05Z" stroke="#E78D0A" stroke-width="3"/>
<path d="M951.72 350.054C955.547 343.318 955.547 335.065 951.72 328.329L891.662 222.626C887.754 215.749 880.453 211.5 872.543 211.5L753.074 211.5C745.164 211.5 737.863 215.749 733.955 222.626L673.897 328.329C670.07 335.065 670.07 343.318 673.897 350.054L733.955 455.757C737.863 462.634 745.164 466.883 753.074 466.883L872.543 466.883C880.453 466.883 887.754 462.634 891.662 455.757L951.72 350.054Z" stroke="#E78D0A" stroke-width="3"/>
<path d="M235.72 1034.05C239.547 1027.32 239.547 1019.06 235.72 1012.33L175.662 906.626C171.754 899.749 164.453 895.5 156.543 895.5L37.0742 895.5C29.1639 895.5 21.8632 899.749 17.9554 906.626L-42.1026 1012.33C-45.93 1019.06 -45.93 1027.32 -42.1026 1034.05L17.9554 1139.76C21.8632 1146.63 29.1639 1150.88 37.0742 1150.88L156.543 1150.88C164.453 1150.88 171.754 1146.63 175.662 1139.76L235.72 1034.05Z" stroke="#E78D0A" stroke-width="3"/>
<path d="M713.72 763.054C717.547 756.318 717.547 748.065 713.72 741.328L653.662 635.626C649.754 628.749 642.453 624.5 634.543 624.5L515.074 624.5C507.164 624.5 499.863 628.749 495.955 635.626L435.897 741.328C432.07 748.065 432.07 756.318 435.897 763.054L495.955 868.757C499.863 875.634 507.164 879.883 515.074 879.883L634.543 879.883C642.453 879.883 649.754 875.634 653.662 868.757L713.72 763.054Z" stroke="#E78D0A" stroke-width="3"/>
<path d="M475.72 899.054C479.547 892.318 479.547 884.065 475.72 877.328L415.662 771.626C411.754 764.749 404.453 760.5 396.543 760.5L277.074 760.5C269.164 760.5 261.863 764.749 257.955 771.626L197.897 877.328C194.07 884.065 194.07 892.318 197.897 899.054L257.955 1004.76C261.863 1011.63 269.164 1015.88 277.074 1015.88L396.543 1015.88C404.453 1015.88 411.754 1011.63 415.662 1004.76L475.72 899.054Z" stroke="#E78D0A" stroke-width="3"/>
<path d="M717.72 209.054C721.547 202.318 721.547 194.065 717.72 187.329L657.662 81.6264C653.754 74.7487 646.453 70.5 638.543 70.5L519.074 70.5C511.164 70.5 503.863 74.7487 499.955 81.6264L439.897 187.329C436.07 194.065 436.07 202.318 439.897 209.054L499.955 314.757C503.863 321.634 511.164 325.883 519.074 325.883L638.543 325.883C646.453 325.883 653.754 321.634 657.662 314.757L717.72 209.054Z" stroke="#E78D0A" stroke-width="3"/>
<path d="M713.72 486.054C717.547 479.318 717.547 471.065 713.72 464.328L653.662 358.626C649.754 351.749 642.453 347.5 634.543 347.5L515.074 347.5C507.164 347.5 499.863 351.749 495.955 358.626L435.897 464.328C432.07 471.065 432.07 479.318 435.897 486.054L495.955 591.757C499.863 598.634 507.164 602.883 515.074 602.883L634.543 602.883C642.453 602.883 649.754 598.634 653.662 591.757L713.72 486.054Z" stroke="#E78D0A" stroke-width="3"/>
<path d="M475.72 75.0544C479.547 68.3182 479.547 60.0648 475.72 53.3285L415.662 -52.3736C411.754 -59.2513 404.453 -63.5 396.543 -63.5L277.074 -63.5C269.164 -63.5 261.863 -59.2513 257.955 -52.3736L197.897 53.3285C194.07 60.0648 194.07 68.3182 197.897 75.0544L257.955 180.757C261.863 187.634 269.164 191.883 277.074 191.883L396.543 191.883C404.453 191.883 411.754 187.634 415.662 180.757L475.72 75.0544Z" stroke="#E78D0A" stroke-width="3"/>
<path d="M475.72 349.437C479.547 342.701 479.547 334.448 475.72 327.712L415.662 222.009C411.754 215.132 404.453 210.883 396.543 210.883L277.074 210.883C269.164 210.883 261.863 215.132 257.955 222.009L197.897 327.712C194.07 334.448 194.07 342.701 197.897 349.437L257.955 455.14C261.863 462.017 269.164 466.266 277.074 466.266L396.543 466.266C404.453 466.266 411.754 462.017 415.662 455.14L475.72 349.437Z" stroke="#E78D0A" stroke-width="3"/>
<path d="M475.72 623.82C479.547 617.084 479.547 608.831 475.72 602.094L415.662 496.392C411.754 489.515 404.453 485.266 396.543 485.266L277.074 485.266C269.164 485.266 261.863 489.515 257.955 496.392L197.897 602.094C194.07 608.831 194.07 617.084 197.897 623.82L257.955 729.523C261.863 736.4 269.164 740.649 277.074 740.649L396.543 740.649C404.453 740.649 411.754 736.4 415.662 729.523L475.72 623.82Z" stroke="#E78D0A" stroke-width="3"/>
<path d="M235.72 -59.9456C239.547 -66.6818 239.547 -74.9352 235.72 -81.6715L175.662 -187.374C171.754 -194.251 164.453 -198.5 156.543 -198.5L37.0742 -198.5C29.1639 -198.5 21.8632 -194.251 17.9554 -187.374L-42.1026 -81.6715C-45.93 -74.9352 -45.93 -66.6818 -42.1026 -59.9456L17.9554 45.7566C21.8632 52.6342 29.1639 56.883 37.0742 56.883L156.543 56.883C164.453 56.883 171.754 52.6342 175.662 45.7566L235.72 -59.9456Z" stroke="#E78D0A" stroke-width="3"/>
<path d="M235.72 762.054C239.547 755.318 239.547 747.065 235.72 740.328L175.662 634.626C171.754 627.749 164.453 623.5 156.543 623.5L37.0742 623.5C29.1639 623.5 21.8632 627.749 17.9554 634.626L-42.1026 740.328C-45.93 747.065 -45.93 755.318 -42.1026 762.054L17.9554 867.757C21.8632 874.634 29.1639 878.883 37.0742 878.883L156.543 878.883C164.453 878.883 171.754 874.634 175.662 867.757L235.72 762.054Z" stroke="#E78D0A" stroke-width="3"/>
<path d="M235.72 -58.5626C239.547 -65.2989 239.547 -73.5522 235.72 -80.2885L175.662 -185.991C171.754 -192.868 164.453 -197.117 156.543 -197.117L37.0742 -197.117C29.1639 -197.117 21.8632 -192.868 17.9554 -185.991L-42.1026 -80.2885C-45.93 -73.5522 -45.93 -65.2988 -42.1026 -58.5626L17.9554 47.1396C21.8632 54.0172 29.1639 58.266 37.0742 58.266L156.543 58.266C164.453 58.266 171.754 54.0172 175.662 47.1395L235.72 -58.5626Z" stroke="#E78D0A" stroke-width="3"/>
<path d="M235.72 215.82C239.547 209.084 239.547 200.831 235.72 194.095L175.662 88.3924C171.754 81.5147 164.453 77.266 156.543 77.266L37.0742 77.266C29.1639 77.266 21.8632 81.5147 17.9554 88.3924L-42.1026 194.095C-45.93 200.831 -45.93 209.084 -42.1026 215.82L17.9554 321.523C21.8632 328.4 29.1639 332.649 37.0742 332.649L156.543 332.649C164.453 332.649 171.754 328.4 175.662 321.523L235.72 215.82Z" stroke="#E78D0A" stroke-width="3"/>
<path d="M235.72 490.203C239.547 483.467 239.547 475.214 235.72 468.478L175.662 362.775C171.754 355.898 164.453 351.649 156.543 351.649L37.0742 351.649C29.1639 351.649 21.8632 355.898 17.9554 362.775L-42.1026 468.478C-45.93 475.214 -45.93 483.467 -42.1026 490.203L17.9554 595.906C21.8632 602.783 29.1639 607.032 37.0742 607.032L156.543 607.032C164.453 607.032 171.754 602.783 175.662 595.906L235.72 490.203Z" stroke="#E78D0A" stroke-width="3"/>
</svg>
