<svg width="33" height="21" viewBox="0 0 33 21" fill="none" xmlns="http://www.w3.org/2000/svg">
<path d="M10.8636 19.3182C12.4201 19.3182 13.6818 18.0565 13.6818 16.5C13.6818 14.9435 12.4201 13.6818 10.8636 13.6818C9.30716 13.6818 8.04541 14.9435 8.04541 16.5C8.04541 18.0565 9.30716 19.3182 10.8636 19.3182Z" stroke="#D9D9D9" stroke-width="2" stroke-miterlimit="1.5" stroke-linecap="round" stroke-linejoin="round"/>
<path d="M24.9549 19.3182C26.5114 19.3182 27.7731 18.0565 27.7731 16.5C27.7731 14.9435 26.5114 13.6818 24.9549 13.6818C23.3984 13.6818 22.1367 14.9435 22.1367 16.5C22.1367 18.0565 23.3984 19.3182 24.9549 19.3182Z" stroke="#D9D9D9" stroke-width="2" stroke-miterlimit="1.5" stroke-linecap="round" stroke-linejoin="round"/>
<path d="M13.7524 16.5H20.7274V1.84545C20.7274 1.37852 20.3489 1 19.8819 1H1" stroke="#D9D9D9" stroke-width="2" stroke-linecap="round"/>
<path d="M7.55199 16.5H4.66333C4.1964 16.5 3.81787 16.1215 3.81787 15.6545V8.75" stroke="#D9D9D9" stroke-width="2" stroke-linecap="round"/>
<path d="M2.40918 5.22726H8.04558" stroke="#D9D9D9" stroke-width="2" stroke-linecap="round" stroke-linejoin="round"/>
<path d="M20.7271 5.22726H28.6322C28.9663 5.22726 29.2692 5.42403 29.4048 5.72935L31.927 11.4042C31.975 11.5124 31.9998 11.6293 31.9998 11.7476V15.6545C31.9998 16.1215 31.6214 16.5 31.1544 16.5H28.4771" stroke="#D9D9D9" stroke-width="2" stroke-linecap="round"/>
<path d="M20.7271 16.5H22.1362" stroke="#D9D9D9" stroke-width="2" stroke-linecap="round"/>
</svg>
