<?xml version="1.0" standalone="no"?>
<!DOCTYPE svg PUBLIC "-//W3C//DTD SVG 20010904//EN"
 "http://www.w3.org/TR/2001/REC-SVG-20010904/DTD/svg10.dtd">
<svg version="1.0" xmlns="http://www.w3.org/2000/svg"
 width="512.000000pt" height="512.000000pt" viewBox="0 0 512.000000 512.000000"
 preserveAspectRatio="xMidYMid meet">
<metadata>
Created by potrace 1.16, written by Peter Selinger 2001-2019
</metadata>
<g transform="translate(0.000000,512.000000) scale(0.100000,-0.100000)"
fill="#000000" stroke="none">
<path d="M4080 4678 c-173 -231 -316 -425 -318 -429 -2 -5 69 -9 157 -9 l161
0 0 -400 0 -400 320 0 320 0 0 400 0 400 161 0 c88 0 159 4 157 9 -5 14 -633
850 -638 850 -3 0 -147 -189 -320 -421z m479 -73 l150 -200 -75 -3 -74 -3 0
-399 0 -400 -160 0 -160 0 0 400 0 399 -74 3 -75 3 152 203 c83 111 155 201
159 200 4 -2 74 -93 157 -203z"/>
<path d="M700 5034 c-236 -29 -408 -93 -445 -165 -13 -24 -15 -194 -15 -1209
l0 -1180 -27 0 c-38 0 -89 -33 -113 -72 -20 -32 -20 -53 -20 -1128 0 -1075 0
-1096 20 -1128 11 -18 34 -41 52 -52 33 -20 56 -20 2408 -20 2352 0 2375 0
2408 20 18 11 41 34 52 52 20 32 20 53 20 1128 0 1068 -1 1096 -20 1127 -44
72 12 67 -841 73 l-768 5 295 392 c162 216 294 395 294 398 0 3 -72 5 -160 5
l-160 0 0 400 0 400 -320 0 -320 0 0 -400 0 -400 -160 0 c-88 0 -160 -2 -160
-5 0 -4 524 -708 583 -782 7 -10 -59 -13 -327 -13 l-336 0 0 703 c0 667 -1
703 -19 730 -41 63 -133 105 -303 139 -100 20 -143 23 -375 23 l-263 0 0 385
c0 358 -1 387 -19 413 -40 62 -132 104 -297 138 -93 19 -147 22 -369 24 -143
2 -276 1 -295 -1z m554 -180 c109 -15 216 -42 216 -54 0 -9 -93 -35 -180 -50
-215 -38 -593 -25 -782 27 -32 9 -58 19 -58 23 0 4 26 14 58 23 190 52 510 66
746 31z m-764 -250 c257 -67 814 -56 1013 21 16 7 17 -4 17 -139 l0 -147 -46
-21 c-210 -93 -818 -93 -1028 0 l-46 21 0 147 c0 135 1 146 18 139 9 -3 42
-13 72 -21z m0 -480 c257 -67 814 -56 1013 21 15 6 17 1 17 -43 0 -51 0 -51
-37 -58 -65 -12 -170 -51 -209 -78 -54 -36 -74 -72 -74 -132 0 -40 -4 -53 -17
-58 -9 -4 -107 -7 -218 -7 -253 1 -441 28 -537 77 l-28 15 0 145 c0 135 1 146
18 139 9 -3 42 -13 72 -21z m1724 -230 c109 -15 216 -42 216 -54 0 -9 -93 -35
-180 -50 -215 -38 -593 -25 -782 27 -32 9 -58 19 -58 23 0 4 26 14 58 23 190
52 510 66 746 31z m1306 -374 l0 -399 74 -3 75 -3 -150 -200 c-83 -110 -154
-200 -159 -200 -5 0 -76 90 -159 200 l-150 200 75 3 74 3 0 399 0 400 160 0
160 0 0 -400z m-3030 124 c119 -31 286 -45 500 -42 l210 3 0 -151 c0 -134 -2
-153 -17 -158 -9 -4 -107 -7 -218 -7 -253 1 -441 28 -537 77 l-28 15 0 145 c0
135 1 146 18 139 9 -3 42 -13 72 -21z m960 0 c257 -67 814 -56 1013 21 16 7
17 -4 17 -139 l0 -147 -46 -21 c-210 -93 -818 -93 -1028 0 l-46 21 0 147 c0
135 1 146 18 139 9 -3 42 -13 72 -21z m-960 -480 c119 -31 286 -45 500 -42
l210 3 0 -151 c0 -134 -2 -153 -17 -158 -9 -4 -107 -7 -218 -7 -253 1 -441 28
-537 77 l-28 15 0 145 c0 135 1 146 18 139 9 -3 42 -13 72 -21z m960 0 c257
-67 814 -56 1013 21 16 7 17 -4 17 -139 l0 -147 -46 -21 c-210 -93 -818 -93
-1028 0 l-46 21 0 147 c0 135 1 146 18 139 9 -3 42 -13 72 -21z m-960 -480
c119 -31 286 -45 500 -42 l210 3 0 -82 0 -83 -400 0 -400 0 0 116 c0 107 1
116 18 109 9 -3 42 -13 72 -21z m960 0 c257 -67 814 -56 1013 21 16 7 17 -2
17 -109 l0 -116 -560 0 -560 0 0 116 c0 107 1 116 18 109 9 -3 42 -13 72 -21z
m3430 -1404 l0 -1040 -2320 0 -2320 0 0 1040 0 1040 2320 0 2320 0 0 -1040z"/>
<path d="M400 1280 l0 -880 2160 0 2160 0 0 880 0 880 -2160 0 -2160 0 0 -880z
m460 703 c0 -35 -50 -123 -96 -173 -45 -49 -149 -110 -186 -110 -17 0 -18 11
-18 150 l0 150 150 0 c136 0 150 -2 150 -17z m1118 -37 c-139 -118 -243 -295
-283 -481 -19 -90 -19 -280 0 -370 40 -186 148 -369 288 -486 l59 -49 -501 0
-501 0 -6 28 c-50 229 -217 396 -446 446 l-28 6 0 240 0 240 28 6 c229 50 396
217 446 447 l6 27 501 0 500 0 -63 -54z m684 39 c32 -3 94 -18 138 -34 202
-74 364 -239 437 -446 26 -74 28 -91 28 -225 0 -132 -2 -152 -27 -221 -40
-112 -92 -195 -177 -280 -157 -157 -356 -229 -574 -208 -267 26 -508 217 -601
478 -29 81 -31 94 -31 231 0 134 2 151 28 225 75 211 238 376 447 450 72 25
197 45 250 39 14 -2 51 -6 82 -9z m1424 -12 c50 -230 217 -397 447 -447 l27
-6 0 -240 0 -240 -27 -6 c-230 -50 -397 -217 -447 -447 l-6 -27 -501 0 -501 0
59 49 c140 117 248 300 288 486 19 90 19 280 0 370 -40 186 -148 369 -288 486
l-59 49 501 0 501 0 6 -27z m474 -123 c0 -172 3 -167 -87 -125 -73 33 -147
106 -183 178 -50 100 -54 97 120 97 l150 0 0 -150z m-3903 -1020 c72 -36 145
-110 178 -183 42 -90 47 -87 -125 -87 l-150 0 0 150 c0 174 -3 170 97 120z
m3903 -120 l0 -150 -150 0 c-172 0 -167 -3 -125 87 33 73 106 147 178 183 100
50 97 54 97 -120z"/>
<path d="M2480 1760 l0 -80 -80 0 -80 0 0 -152 c0 -128 4 -160 19 -193 33 -71
120 -135 184 -135 74 0 117 -46 117 -125 0 -33 -2 -35 -34 -35 -84 0 -126 42
-126 125 l0 35 -80 0 -80 0 0 -72 c0 -49 6 -86 19 -113 18 -41 75 -98 117
-117 22 -11 24 -17 24 -95 l0 -83 80 0 80 0 0 80 0 80 80 0 80 0 0 153 c0 127
-4 159 -19 192 -33 72 -120 135 -186 135 -73 0 -115 46 -115 126 0 32 2 34 35
34 83 0 125 -42 125 -126 l0 -34 80 0 80 0 0 73 c0 48 -6 85 -19 112 -18 41
-75 98 -117 117 -22 11 -24 17 -24 95 l0 83 -80 0 -80 0 0 -80z"/>
</g>
</svg>
