<svg width="30" height="27" viewBox="0 0 30 27" fill="none" xmlns="http://www.w3.org/2000/svg">
<path d="M29.7931 7.44828L14.8966 0L0 7.44828V10.2414L0.931035 10.7069V20.0172C0.931035 20.7885 1.55629 21.4138 2.32759 21.4138H3.25862C4.02991 21.4138 4.65517 20.7885 4.65517 20.0172V12.569L13.0345 16.7586V25.6035C13.0345 26.3748 13.6597 27 14.431 27H15.3621C16.1334 27 16.7586 26.3748 16.7586 25.6035V16.7586L25.1379 12.569V20.0172C25.1379 20.7885 25.7632 21.4138 26.5345 21.4138H27.4655C28.2368 21.4138 28.8621 20.7885 28.8621 20.0172V10.7069L29.7931 10.2414V7.44828Z" fill="#F89019"/>
</svg>
