<?xml version="1.0" standalone="no"?>
<!DOCTYPE svg PUBLIC "-//W3C//DTD SVG 20010904//EN"
 "http://www.w3.org/TR/2001/REC-SVG-20010904/DTD/svg10.dtd">
<svg version="1.0" xmlns="http://www.w3.org/2000/svg"
 width="512.000000pt" height="512.000000pt" viewBox="0 0 512.000000 512.000000"
 preserveAspectRatio="xMidYMid meet">
<metadata>
Created by potrace 1.16, written by Peter Selinger 2001-2019
</metadata>
<g transform="translate(0.000000,512.000000) scale(0.100000,-0.100000)"
fill="#000000" stroke="none">
<path d="M562 5099 c-53 -27 -115 -96 -130 -147 -8 -26 -12 -140 -12 -346 l0
-307 25 -24 c32 -33 84 -33 122 -1 l28 24 3 298 c3 289 4 299 24 321 l21 23
1254 0 1253 0 0 -89 c0 -81 -2 -92 -26 -120 l-25 -30 -464 -3 -464 -3 -23 -23
c-32 -31 -31 -92 1 -126 l24 -26 476 0 476 0 50 24 c66 30 120 91 139 157 10
31 16 91 16 146 l0 93 653 0 654 0 21 -23 c22 -23 22 -27 22 -406 l0 -382 -25
-24 -24 -25 -1994 0 c-1676 0 -2001 -2 -2040 -14 -64 -19 -121 -67 -151 -128
l-26 -52 0 -404 c0 -281 4 -417 12 -444 16 -53 78 -121 136 -150 47 -23 48
-23 512 -26 l466 -3 -4 -69 c-4 -58 1 -83 28 -161 39 -113 42 -196 11 -280
-12 -31 -66 -119 -121 -195 -120 -167 -181 -285 -217 -419 -23 -87 -27 -121
-28 -268 l-2 -168 -470 -233 c-276 -137 -473 -241 -476 -251 -26 -65 13 -135
75 -135 23 0 169 67 492 227 l459 227 136 -142 c131 -137 138 -142 177 -142
65 0 108 55 87 114 -4 14 -72 92 -150 174 l-141 150 -7 86 c-14 166 13 322 80
462 19 39 77 131 130 205 53 74 106 152 117 173 73 141 82 305 27 454 -12 31
-24 75 -26 98 -4 36 -1 44 27 67 20 17 43 27 64 27 47 0 144 -52 199 -107 62
-61 93 -129 113 -245 26 -147 14 -247 -61 -508 -45 -153 38 -325 193 -401 39
-20 63 -24 143 -24 90 0 100 2 165 35 52 27 81 50 121 100 84 103 232 330 338
520 116 208 152 265 216 346 91 115 212 188 381 231 l98 25 43 -21 c52 -25 77
-65 77 -121 0 -36 -6 -48 -38 -79 -21 -20 -76 -58 -123 -84 -171 -97 -316
-243 -430 -434 -34 -58 -105 -202 -159 -321 -180 -400 -240 -502 -380 -642
-172 -172 -416 -300 -698 -365 -59 -14 -124 -30 -144 -35 -31 -9 -64 -40 -183
-175 -81 -91 -149 -165 -152 -165 -4 0 -81 77 -172 170 -150 154 -169 171
-199 170 -23 0 -42 -9 -63 -29 -49 -50 -36 -102 46 -181 26 -25 96 -97 155
-161 l109 -116 -49 -55 c-56 -63 -68 -96 -50 -139 16 -37 37 -49 89 -49 40 0
41 1 287 279 l247 279 96 22 c367 85 677 256 872 482 120 139 197 276 344 608
86 196 137 293 206 395 97 144 217 252 371 335 91 49 159 119 182 187 22 63
20 161 -3 222 l-18 49 341 4 c334 3 342 3 388 26 58 29 120 97 136 150 8 27
12 163 12 444 l0 404 -26 52 -26 52 26 52 26 52 0 409 c0 285 -4 422 -12 449
-15 51 -77 121 -131 147 l-43 21 -2035 0 -2034 0 -43 -21z m2586 -1299 c-3
-88 -6 -102 -26 -122 l-23 -23 -461 -3 c-454 -3 -463 -3 -485 -24 -47 -44 -34
-123 25 -147 21 -9 151 -11 493 -9 511 3 497 2 572 67 62 55 80 108 85 244 l4
117 655 -2 655 -3 19 -24 c18 -22 19 -44 19 -400 l0 -378 -26 -24 -26 -24
-1988 0 -1988 0 -26 24 -26 24 0 374 c0 246 4 381 11 394 6 11 20 24 32 29 12
5 574 9 1265 9 l1244 1 -4 -100z m-394 -1066 c-66 -132 -138 -333 -149 -420
-6 -45 -4 -54 18 -79 20 -24 33 -30 66 -30 58 0 76 23 110 145 33 118 83 242
139 345 51 94 107 130 198 130 34 0 65 -3 69 -6 3 -4 -19 -32 -50 -63 -79 -82
-141 -173 -273 -406 -196 -347 -333 -545 -402 -580 -98 -50 -211 3 -240 112
-10 35 -8 52 14 122 40 128 55 203 62 311 12 184 -28 371 -104 484 l-40 61
322 0 323 0 -63 -126z"/>
</g>
</svg>
